HIERARCHY
ROOT Hips
{
	OFFSET 0.000000 89.005402 0.000000
	CHANNELS 6 Xposition Yposition Zposition Xrotation Yrotation Zrotation
	JOINT Spine
	{
		OFFSET 0.116900 10.681000 0.373400
		CHANNELS 3 Xrotation Yrotation Zrotation
		JOINT Spine1
		{
			OFFSET 0.000000 13.840401 0.053500
			CHANNELS 3 Xrotation Yrotation Zrotation
			JOINT Spine2
			{
				OFFSET 0.000000 14.712700 -0.366200
				CHANNELS 3 Xrotation Yrotation Zrotation
				JOINT Neck
				{
					OFFSET 0.000000 35.415497 -3.314200
					CHANNELS 3 Xrotation Yrotation Zrotation
					JOINT Head
					{
						OFFSET 0.000000 16.899200 1.218300
						CHANNELS 3 Xrotation Yrotation Zrotation
						JOINT HeadTop_End
						{
							OFFSET 0.000000 22.206207 2.192500
							CHANNELS 3 Xrotation Yrotation Zrotation
							End Site
							{
								OFFSET 0.000000 22.314178 0.000000
							}
						}
					}
				}
				JOINT LeftShoulder
				{
					OFFSET 12.896400 26.716293 -4.548400
					CHANNELS 3 Xrotation Yrotation Zrotation
					JOINT LeftArm
					{
						OFFSET 19.027000 -4.857010 -1.718400
						CHANNELS 3 Xrotation Yrotation Zrotation
						JOINT LeftForeArm
						{
							OFFSET 24.179897 0.000000 0.000000
							CHANNELS 3 Xrotation Yrotation Zrotation
							JOINT LeftHand
							{
								OFFSET 27.156403 0.000000 0.000000
								CHANNELS 3 Xrotation Yrotation Zrotation
								JOINT LeftHandIndex1
								{
									OFFSET 16.441200 0.000000 0.000000
									CHANNELS 3 Xrotation Yrotation Zrotation
									JOINT LeftHandIndex2
									{
										OFFSET 4.821899 0.000000 0.000000
										CHANNELS 3 Xrotation Yrotation Zrotation
										JOINT LeftHandIndex3
										{
											OFFSET 6.386497 0.000000 0.000000
											CHANNELS 3 Xrotation Yrotation Zrotation
											JOINT LeftHandIndex4
											{
												OFFSET 5.188988 0.000000 0.000000
												CHANNELS 3 Xrotation Yrotation Zrotation
												End Site
												{
													OFFSET -0.178703 5.185913 0.000177
												}
											}
										}
									}
								}
								JOINT LeftHandThumb1
								{
									OFFSET 6.534897 -5.032593 5.900300
									CHANNELS 3 Xrotation Yrotation Zrotation
									JOINT LeftHandThumb2
									{
										OFFSET 3.818176 -2.204422 2.204423
										CHANNELS 3 Xrotation Yrotation Zrotation
										JOINT LeftHandThumb3
										{
											OFFSET 3.252098 -1.877594 1.877601
											CHANNELS 3 Xrotation Yrotation Zrotation
											JOINT LeftHandThumb4
											{
												OFFSET 5.251778 -3.032120 3.032117
												CHANNELS 3 Xrotation Yrotation Zrotation
												End Site
												{
													OFFSET 0.000023 6.780014 0.000000
												}
											}
										}
									}
								}
							}
						}
					}
				}
				JOINT RightShoulder
				{
					OFFSET -12.896300 26.716293 -4.548400
					CHANNELS 3 Xrotation Yrotation Zrotation
					JOINT RightArm
					{
						OFFSET -19.027000 -4.857010 -1.718400
						CHANNELS 3 Xrotation Yrotation Zrotation
						JOINT RightForeArm
						{
							OFFSET -24.179897 0.000000 0.000000
							CHANNELS 3 Xrotation Yrotation Zrotation
							JOINT RightHand
							{
								OFFSET -27.156403 0.000000 0.000000
								CHANNELS 3 Xrotation Yrotation Zrotation
								JOINT RightHandThumb1
								{
									OFFSET -6.591202 -4.852203 5.988100
									CHANNELS 3 Xrotation Yrotation Zrotation
									JOINT RightHandThumb2
									{
										OFFSET -3.818176 -2.204422 2.204423
										CHANNELS 3 Xrotation Yrotation Zrotation
										JOINT RightHandThumb3
										{
											OFFSET -3.252098 -1.877594 1.877601
											CHANNELS 3 Xrotation Yrotation Zrotation
											JOINT RightHandThumb4
											{
												OFFSET -5.251778 -3.032120 3.032117
												CHANNELS 3 Xrotation Yrotation Zrotation
												End Site
												{
													OFFSET -0.000023 6.780014 0.000000
												}
											}
										}
									}
								}
								JOINT RightHandIndex1
								{
									OFFSET -16.029404 0.000000 0.000000
									CHANNELS 3 Xrotation Yrotation Zrotation
									JOINT RightHandIndex2
									{
										OFFSET -5.213303 0.000000 0.000000
										CHANNELS 3 Xrotation Yrotation Zrotation
										JOINT RightHandIndex3
										{
											OFFSET -6.386528 0.000000 0.000000
											CHANNELS 3 Xrotation Yrotation Zrotation
											JOINT RightHandIndex4
											{
												OFFSET -5.189026 0.000000 0.000000
												CHANNELS 3 Xrotation Yrotation Zrotation
												End Site
												{
													OFFSET 0.236702 5.183624 0.001972
												}
											}
										}
									}
								}
							}
						}
					}
				}
			}
		}
	}
	JOINT LeftUpLeg
	{
		OFFSET 14.073000 -7.904099 -1.463000
		CHANNELS 3 Xrotation Yrotation Zrotation
		JOINT LeftLeg
		{
			OFFSET -0.109806 -34.073280 4.093200
			CHANNELS 3 Xrotation Yrotation Zrotation
			JOINT LeftFoot
			{
				OFFSET 0.109806 -29.899420 -6.319000
				CHANNELS 3 Xrotation Yrotation Zrotation
				JOINT LeftToeBase
				{
					OFFSET 1.551100 -14.988700 20.535801
					CHANNELS 3 Xrotation Yrotation Zrotation
					JOINT LeftToe_End
					{
						OFFSET 0.221200 0.570800 13.248301
						CHANNELS 3 Xrotation Yrotation Zrotation
						End Site
						{
							OFFSET 0.000000 13.262435 0.000000
						}
					}
				}
			}
		}
	}
	JOINT RightUpLeg
	{
		OFFSET -13.839300 -7.904099 -1.463000
		CHANNELS 3 Xrotation Yrotation Zrotation
		JOINT RightLeg
		{
			OFFSET 0.109694 -34.073219 4.093300
			CHANNELS 3 Xrotation Yrotation Zrotation
			JOINT RightFoot
			{
				OFFSET -0.109694 -29.899384 -6.319200
				CHANNELS 3 Xrotation Yrotation Zrotation
				JOINT RightToeBase
				{
					OFFSET -1.551100 -14.988700 20.535801
					CHANNELS 3 Xrotation Yrotation Zrotation
					JOINT RightToe_End
					{
						OFFSET -0.221200 0.570900 13.248299
						CHANNELS 3 Xrotation Yrotation Zrotation
						End Site
						{
							OFFSET 0.000000 13.262440 0.000000
						}
					}
				}
			}
		}
	}
}
MOTION
Frames: 4
Frame Time: 0.033333
90.947792 85.327560 1.641926 -7.539104 -12.063145 -0.243288 0.424061 -3.301461 -0.507430 0.284010 -0.893811 -0.660016 0.280209 -0.889752 -0.665899 3.860771 -0.090942 -1.692916 6.722670 -3.117416 2.089421 -0.000000 0.000003 -0.000000 0.696089 -0.990977 -7.816576 -76.153310 -39.561132 -72.379084 -0.000006 -21.148960 -0.000007 39.262680 -6.109751 -7.838276 0.697272 -3.398628 15.945917 0.215363 1.711959 -14.339279 0.000180 -0.050556 0.418823 -0.000003 -0.000002 0.000001 -2.237816 2.422485 6.595009 5.172546 13.507000 -0.281412 -2.090053 -3.888730 3.527408 -0.000001 0.000001 -0.000002 1.270677 1.697589 8.555461 -44.109269 32.970911 74.613861 -0.000085 109.489189 0.000080 23.646557 32.474493 -14.353392 -13.347936 -4.257340 8.681693 13.913693 -30.738819 1.911465 16.318343 -41.323498 -0.684260 0.000006 -0.000003 0.000003 15.167875 -19.208063 42.384800 6.629851 -6.940979 87.367272 1.264894 -4.003793 35.053337 0.000002 -0.000001 -0.000002 1.531098 17.401862 13.126318 15.238377 -4.455326 0.673980 -10.869527 1.844499 -12.471294 -0.453733 0.000000 0.000001 0.000000 -0.000000 0.000000 -6.778372 -14.101019 -11.860015 25.537338 -8.447148 0.769789 -10.611875 -2.271442 7.767357 -0.600882 -0.000000 0.000001 0.000000 -0.000003 0.000000 
91.446251 85.267334 1.578820 -7.829219 -10.436517 -0.144191 0.627991 -3.097568 -0.681412 0.356811 -0.833366 -0.694450 0.353213 -0.829079 -0.700339 4.145395 -0.229074 -1.732674 6.709945 -4.244725 3.761416 0.000000 0.000000 0.000000 0.682544 -0.680059 -7.838168 -75.471043 -39.873866 -70.550055 0.000004 -21.148940 -0.000001 38.532611 -5.986077 -8.346162 0.762912 -3.481486 17.428688 0.242100 1.813288 -15.208454 0.000136 -0.043164 0.357726 -0.000002 0.000003 0.000001 -2.140754 2.576082 6.872292 5.172500 13.506823 -0.281366 -2.093450 -3.902140 3.529772 -0.000001 0.000000 0.000001 1.289495 1.760571 8.615199 -43.513786 32.024063 74.403846 0.000139 109.957569 -0.000132 24.784982 32.380267 -15.090079 -13.347936 -4.257339 8.681693 13.913689 -30.738819 1.911463 16.318346 -41.323498 -0.684258 0.000002 -0.000001 0.000002 15.167871 -19.208059 42.384800 6.629852 -6.940981 87.367272 1.264893 -4.003792 35.053337 0.000003 -0.000000 -0.000002 0.549320 17.306231 13.142321 16.399212 -5.594064 0.486956 -10.845490 1.670685 -11.652702 -0.311458 0.000001 0.000001 -0.000000 -0.000000 0.000000 -6.177902 -14.401468 -12.293183 25.497668 -8.369793 0.752023 -10.583206 -3.419942 8.294248 -0.607244 -0.000003 -0.000000 0.000000 -0.000003 -0.000000 
92.040817 85.218109 1.559381 -8.097951 -8.416026 -0.019355 0.771693 -3.114937 -0.879517 0.408625 -0.834647 -0.739658 0.404642 -0.830234 -0.745861 4.433184 -0.427443 -1.886484 6.725990 -5.870725 5.590787 -0.000000 -0.000002 0.000000 0.678046 -0.409828 -7.933581 -74.676214 -40.118188 -68.729311 -0.000008 -21.148953 0.000005 38.494468 -5.848759 -8.665546 0.798039 -3.474808 18.907545 0.274461 1.928318 -16.199680 0.000105 -0.038545 0.319311 -0.000001 -0.000003 0.000000 -2.050583 2.719738 7.165881 5.172447 13.506560 -0.281337 -2.096966 -3.916043 3.532217 0.000001 0.000000 0.000001 1.291470 1.774859 8.614089 -42.575571 30.837618 74.052228 -0.000046 110.714552 0.000035 26.265487 32.026361 -15.902745 -13.347937 -4.257342 8.681690 13.913692 -30.738819 1.911464 16.318352 -41.323498 -0.684262 -0.000002 0.000000 -0.000000 15.167878 -19.208061 42.384804 6.629853 -6.940978 87.367265 1.264892 -4.003798 35.053337 0.000000 -0.000002 -0.000002 -0.522181 16.953730 12.958758 17.590807 -6.920998 0.496980 -10.739047 1.532544 -10.768225 -0.088629 -0.000001 -0.000001 0.000000 0.000000 0.000000 -5.329939 -14.763640 -12.703767 25.233178 -8.294060 0.682287 -10.492927 -4.794415 8.975354 -0.576744 0.000009 0.000002 -0.000000 -0.000002 0.000000 
92.719032 85.169174 1.567026 -8.304351 -6.383657 0.069443 0.889234 -3.093925 -1.041235 0.443382 -0.825466 -0.781364 0.438881 -0.821339 -0.787502 4.631600 -0.692275 -2.078286 6.767455 -7.916666 7.564504 -0.000000 0.000001 0.000000 0.677486 -0.177291 -8.054697 -73.877163 -40.436055 -67.049802 0.000005 -21.148950 0.000001 38.564375 -5.512188 -8.937269 0.796033 -3.385118 20.306304 0.307292 2.037829 -17.148088 0.000099 -0.037796 0.313058 0.000000 0.000001 -0.000002 -1.961692 2.862338 7.501382 5.172398 13.506377 -0.281305 -2.101394 -3.933562 3.535308 0.000000 -0.000000 -0.000001 1.283211 1.755538 8.580144 -41.430760 29.407079 73.511024 0.000004 111.720680 -0.000000 27.875144 31.754424 -16.700321 -13.347936 -4.257341 8.681687 13.913691 -30.738819 1.911466 16.318340 -41.323498 -0.684263 0.000002 0.000001 -0.000000 15.167876 -19.208065 42.384800 6.629853 -6.940981 87.367272 1.264896 -4.003789 35.053337 0.000001 0.000001 0.000001 -1.583589 16.395760 12.587727 18.741329 -8.241652 0.622216 -10.467805 1.408537 -9.824156 0.081326 -0.000001 -0.000003 0.000000 0.000000 -0.000000 -4.420792 -15.106384 -13.033996 24.790103 -8.228932 0.551219 -10.278881 -6.191591 9.749329 -0.529272 -0.000007 -0.000002 -0.000000 0.000002 0.000000 
